# xmcd CD database file
#
# Track frame offsets:
#	150
#	11033
#	29267
#	42536
#	56332
#	74168
#	91240
#	106957
#	124021
#	142027
#	160207
#	174443
#	183908
#	197837
#
# Disc length: 2912 seconds
#
# Revision: 0
# Processed by: cddbd v1.5.2PL0 Copyright (c) Steve Scherf et al.
# Submitted via: CDex 1.51
#
DISCID=c40b5e0e
DTITLE=Papa Roach - Lovehatetragady
DYEAR=2002
DGENRE=Nu-Metal
TTITLE0=M-80 (explosive energy movement)
TTITLE1=Life is a bullet
TTITLE2=Time and time again
TTITLE3=Walking thru barbed wire
TTITLE4=Decompression period
TTITLE5=Born with nothing, die with everything
TTITLE6=She loves me not
TTITLE7=Singular indestructible droid
TTITLE8=Black clouds
TTITLE9=Code of energy
TTITLE10=Lovehatetragady
TTITLE11=Gouge away
TTITLE12=Never said it
TTITLE13=Maschine head - BULLDOZER
EXTD=YEAR: 2002
EXTT0=
EXTT1=
EXTT2=
EXTT3=
EXTT4=
EXTT5=
EXTT6=
EXTT7=
EXTT8=
EXTT9=
EXTT10=
EXTT11=
EXTT12=
EXTT13=
PLAYORDER=
